<svg xmlns="http://www.w3.org/2000/svg" xmlns:xlink="http://www.w3.org/1999/xlink" version="1.1" class="marks" width="549" height="364" viewBox="0 0 549 364"><rect width="549" height="364" fill="white"/><g fill="none" stroke-miterlimit="10" transform="translate(44,27)"><g class="mark-group role-frame root" role="graphics-object" aria-roledescription="group mark container"><g transform="translate(0,0)"><path class="background" aria-hidden="true" d="M0.5,0.5h500v300h-500Z" stroke="#ddd"/><g><g class="mark-group role-axis" aria-hidden="true"><g transform="translate(0.5,0.5)"><path class="background" aria-hidden="true" d="M0,0h0v0h0Z" pointer-events="none"/><g><g class="mark-rule role-axis-grid" pointer-events="none"><line transform="translate(0,300)" x2="500" y2="0" stroke="#ddd" stroke-width="1" opacity="1"/><line transform="translate(0,275)" x2="500" y2="0" stroke="#ddd" stroke-width="1" opacity="1"/><line transform="translate(0,250)" x2="500" y2="0" stroke="#ddd" stroke-width="1" opacity="1"/><line transform="translate(0,225)" x2="500" y2="0" stroke="#ddd" stroke-width="1" opacity="1"/><line transform="translate(0,200)" x2="500" y2="0" stroke="#ddd" stroke-width="1" opacity="1"/><line transform="translate(0,175)" x2="500" y2="0" stroke="#ddd" stroke-width="1" opacity="1"/><line transform="translate(0,150)" x2="500" y2="0" stroke="#ddd" stroke-width="1" opacity="1"/><line transform="translate(0,125)" x2="500" y2="0" stroke="#ddd" stroke-width="1" opacity="1"/><line transform="translate(0,100)" x2="500" y2="0" stroke="#ddd" stroke-width="1" opacity="1"/><line transform="translate(0,75)" x2="500" y2="0" stroke="#ddd" stroke-width="1" opacity="1"/><line transform="translate(0,50)" x2="500" y2="0" stroke="#ddd" stroke-width="1" opacity="1"/><line transform="translate(0,25)" x2="500" y2="0" stroke="#ddd" stroke-width="1" opacity="1"/><line transform="translate(0,0)" x2="500" y2="0" stroke="#ddd" stroke-width="1" opacity="1"/></g></g><path class="foreground" aria-hidden="true" d="" pointer-events="none" display="none"/></g></g><g class="mark-group role-axis" role="graphics-symbol" aria-roledescription="axis" aria-label="X-axis titled 'Date' for a time scale with values from March 22 to July 02"><g transform="translate(0.5,300.5)"><path class="background" aria-hidden="true" d="M0,0h0v0h0Z" pointer-events="none"/><g><g class="mark-rule role-axis-tick" pointer-events="none"><line transform="translate(25,0)" x2="0" y2="5" stroke="#888" stroke-width="1" opacity="1"/><line transform="translate(59,0)" x2="0" y2="5" stroke="#888" stroke-width="1" opacity="1"/><line transform="translate(93,0)" x2="0" y2="5" stroke="#888" stroke-width="1" opacity="1"/><line transform="translate(127,0)" x2="0" y2="5" stroke="#888" stroke-width="1" opacity="1"/><line transform="translate(162,0)" x2="0" y2="5" stroke="#888" stroke-width="1" opacity="1"/><line transform="translate(196,0)" x2="0" y2="5" stroke="#888" stroke-width="1" opacity="1"/><line transform="translate(230,0)" x2="0" y2="5" stroke="#888" stroke-width="1" opacity="1"/><line transform="translate(265,0)" x2="0" y2="5" stroke="#888" stroke-width="1" opacity="1"/><line transform="translate(299,0)" x2="0" y2="5" stroke="#888" stroke-width="1" opacity="1"/><line transform="translate(333,0)" x2="0" y2="5" stroke="#888" stroke-width="1" opacity="1"/><line transform="translate(368,0)" x2="0" y2="5" stroke="#888" stroke-width="1" opacity="1"/><line transform="translate(402,0)" x2="0" y2="5" stroke="#888" stroke-width="1" opacity="1"/><line transform="translate(436,0)" x2="0" y2="5" stroke="#888" stroke-width="1" opacity="1"/><line transform="translate(471,0)" x2="0" y2="5" stroke="#888" stroke-width="1" opacity="1"/></g><g class="mark-text role-axis-label" pointer-events="none"><text text-anchor="middle" transform="translate(24.509803921568626,15)" font-family="sans-serif" font-size="10px" fill="#000" opacity="1">March 27</text><text text-anchor="middle" transform="translate(58.8235294117647,15)" font-family="sans-serif" font-size="10px" fill="#000" opacity="0">April 03</text><text text-anchor="middle" transform="translate(93.13725490196079,15)" font-family="sans-serif" font-size="10px" fill="#000" opacity="1">April 10</text><text text-anchor="middle" transform="translate(127.45098039215685,15)" font-family="sans-serif" font-size="10px" fill="#000" opacity="0">April 17</text><text text-anchor="middle" transform="translate(161.76470588235296,15)" font-family="sans-serif" font-size="10px" fill="#000" opacity="1">April 24</text><text text-anchor="middle" transform="translate(196.078431372549,15)" font-family="sans-serif" font-size="10px" fill="#000" opacity="0">May 01</text><text text-anchor="middle" transform="translate(230.39215686274508,15)" font-family="sans-serif" font-size="10px" fill="#000" opacity="1">May 08</text><text text-anchor="middle" transform="translate(264.70588235294116,15)" font-family="sans-serif" font-size="10px" fill="#000" opacity="0">May 15</text><text text-anchor="middle" transform="translate(299.01960784313724,15)" font-family="sans-serif" font-size="10px" fill="#000" opacity="1">May 22</text><text text-anchor="middle" transform="translate(333.3333333333333,15)" font-family="sans-serif" font-size="10px" fill="#000" opacity="0">May 29</text><text text-anchor="middle" transform="translate(367.64705882352945,15)" font-family="sans-serif" font-size="10px" fill="#000" opacity="1">June 05</text><text text-anchor="middle" transform="translate(401.9607843137255,15)" font-family="sans-serif" font-size="10px" fill="#000" opacity="0">June 12</text><text text-anchor="middle" transform="translate(436.27450980392155,15)" font-family="sans-serif" font-size="10px" fill="#000" opacity="1">June 19</text><text text-anchor="middle" transform="translate(470.5882352941176,15)" font-family="sans-serif" font-size="10px" fill="#000" opacity="0">June 26</text></g><g class="mark-rule role-axis-domain" pointer-events="none"><line transform="translate(0,0)" x2="500" y2="0" stroke="#888" stroke-width="1" opacity="1"/></g><g class="mark-text role-axis-title" pointer-events="none"><text text-anchor="middle" transform="translate(250,30)" font-family="sans-serif" font-size="11px" font-weight="bold" fill="#000" opacity="1">Date</text></g></g><path class="foreground" aria-hidden="true" d="" pointer-events="none" display="none"/></g></g><g class="mark-group role-axis" role="graphics-symbol" aria-roledescription="axis" aria-label="Y-axis titled 'Sites' for a linear scale with values from 0 to 240"><g transform="translate(0.5,0.5)"><path class="background" aria-hidden="true" d="M0,0h0v0h0Z" pointer-events="none"/><g><g class="mark-rule role-axis-tick" pointer-events="none"><line transform="translate(0,300)" x2="-5" y2="0" stroke="#888" stroke-width="1" opacity="1"/><line transform="translate(0,275)" x2="-5" y2="0" stroke="#888" stroke-width="1" opacity="1"/><line transform="translate(0,250)" x2="-5" y2="0" stroke="#888" stroke-width="1" opacity="1"/><line transform="translate(0,225)" x2="-5" y2="0" stroke="#888" stroke-width="1" opacity="1"/><line transform="translate(0,200)" x2="-5" y2="0" stroke="#888" stroke-width="1" opacity="1"/><line transform="translate(0,175)" x2="-5" y2="0" stroke="#888" stroke-width="1" opacity="1"/><line transform="translate(0,150)" x2="-5" y2="0" stroke="#888" stroke-width="1" opacity="1"/><line transform="translate(0,125)" x2="-5" y2="0" stroke="#888" stroke-width="1" opacity="1"/><line transform="translate(0,100)" x2="-5" y2="0" stroke="#888" stroke-width="1" opacity="1"/><line transform="translate(0,75)" x2="-5" y2="0" stroke="#888" stroke-width="1" opacity="1"/><line transform="translate(0,50)" x2="-5" y2="0" stroke="#888" stroke-width="1" opacity="1"/><line transform="translate(0,25)" x2="-5" y2="0" stroke="#888" stroke-width="1" opacity="1"/><line transform="translate(0,0)" x2="-5" y2="0" stroke="#888" stroke-width="1" opacity="1"/></g><g class="mark-text role-axis-label" pointer-events="none"><text text-anchor="end" transform="translate(-7,303)" font-family="sans-serif" font-size="10px" fill="#000" opacity="1">0</text><text text-anchor="end" transform="translate(-7,278)" font-family="sans-serif" font-size="10px" fill="#000" opacity="1">20</text><text text-anchor="end" transform="translate(-7,253)" font-family="sans-serif" font-size="10px" fill="#000" opacity="1">40</text><text text-anchor="end" transform="translate(-7,228)" font-family="sans-serif" font-size="10px" fill="#000" opacity="1">60</text><text text-anchor="end" transform="translate(-7,203.00000000000003)" font-family="sans-serif" font-size="10px" fill="#000" opacity="1">80</text><text text-anchor="end" transform="translate(-7,177.99999999999997)" font-family="sans-serif" font-size="10px" fill="#000" opacity="1">100</text><text text-anchor="end" transform="translate(-7,153)" font-family="sans-serif" font-size="10px" fill="#000" opacity="1">120</text><text text-anchor="end" transform="translate(-7,127.99999999999999)" font-family="sans-serif" font-size="10px" fill="#000" opacity="1">140</text><text text-anchor="end" transform="translate(-7,103.00000000000001)" font-family="sans-serif" font-size="10px" fill="#000" opacity="1">160</text><text text-anchor="end" transform="translate(-7,78)" font-family="sans-serif" font-size="10px" fill="#000" opacity="1">180</text><text text-anchor="end" transform="translate(-7,52.999999999999986)" font-family="sans-serif" font-size="10px" fill="#000" opacity="1">200</text><text text-anchor="end" transform="translate(-7,28.00000000000001)" font-family="sans-serif" font-size="10px" fill="#000" opacity="1">220</text><text text-anchor="end" transform="translate(-7,3)" font-family="sans-serif" font-size="10px" fill="#000" opacity="1">240</text></g><g class="mark-rule role-axis-domain" pointer-events="none"><line transform="translate(0,300)" x2="0" y2="-300" stroke="#888" stroke-width="1" opacity="1"/></g><g class="mark-text role-axis-title" pointer-events="none"><text text-anchor="middle" transform="translate(-27.6845703125,150) rotate(-90) translate(0,-2)" font-family="sans-serif" font-size="11px" font-weight="bold" fill="#000" opacity="1">Sites</text></g></g><path class="foreground" aria-hidden="true" d="" pointer-events="none" display="none"/></g></g><g class="mark-rect role-mark layer_0_marks" role="graphics-object" aria-roledescription="rect mark container"><path aria-label="Date: March 22; Sites: 1" role="graphics-symbol" aria-roledescription="bar" d="M1,298.75h3.901960784313726v1.25h-3.901960784313726Z" fill="#cecece"/><path aria-label="Date: March 23; Sites: 45" role="graphics-symbol" aria-roledescription="bar" d="M5.901960784313726,243.75h3.901960784313726v56.25h-3.901960784313726Z" fill="#cecece"/><path aria-label="Date: March 24; Sites: 48" role="graphics-symbol" aria-roledescription="bar" d="M10.803921568627452,240h3.901960784313724v60h-3.901960784313724Z" fill="#cecece"/><path aria-label="Date: March 25; Sites: 71" role="graphics-symbol" aria-roledescription="bar" d="M15.705882352941176,211.24999999999997h3.9019607843137276v88.75000000000003h-3.9019607843137276Z" fill="#cecece"/><path aria-label="Date: March 26; Sites: 68" role="graphics-symbol" aria-roledescription="bar" d="M20.607843137254903,215h3.9019607843137223v85h-3.9019607843137223Z" fill="#cecece"/><path aria-label="Date: March 27; Sites: 74" role="graphics-symbol" aria-roledescription="bar" d="M25.509803921568626,207.5h3.901960784313726v92.5h-3.901960784313726Z" fill="#cecece"/><path aria-label="Date: March 28; Sites: 79" role="graphics-symbol" aria-roledescription="bar" d="M30.41176470588235,201.25000000000003h3.901960784313733v98.74999999999997h-3.901960784313733Z" fill="#cecece"/><path aria-label="Date: March 29; Sites: 72" role="graphics-symbol" aria-roledescription="bar" d="M35.313725490196084,210h3.9019607843137223v90h-3.9019607843137223Z" fill="#cecece"/><path aria-label="Date: March 30; Sites: 49" role="graphics-symbol" aria-roledescription="bar" d="M40.21568627450981,238.75000000000003h3.9019607843137223v61.24999999999997h-3.9019607843137223Z" fill="#cecece"/><path aria-label="Date: March 31; Sites: 61" role="graphics-symbol" aria-roledescription="bar" d="M45.11764705882353,223.75h3.9019607843137223v76.25h-3.9019607843137223Z" fill="#cecece"/><path aria-label="Date: April 01; Sites: 79" role="graphics-symbol" aria-roledescription="bar" d="M50.01960784313725,201.25000000000003h3.9019607843137294v98.74999999999997h-3.9019607843137294Z" fill="#cecece"/><path aria-label="Date: April 02; Sites: 61" role="graphics-symbol" aria-roledescription="bar" d="M54.92156862745098,223.75h3.9019607843137223v76.25h-3.9019607843137223Z" fill="#cecece"/><path aria-label="Date: April 03; Sites: 27" role="graphics-symbol" aria-roledescription="bar" d="M59.8235294117647,266.25h3.9019607843137223v33.75h-3.9019607843137223Z" fill="#cecece"/><path aria-label="Date: April 04; Sites: 82" role="graphics-symbol" aria-roledescription="bar" d="M64.72549019607843,197.5h3.9019607843137436v102.5h-3.9019607843137436Z" fill="#cecece"/><path aria-label="Date: April 05; Sites: 76" role="graphics-symbol" aria-roledescription="bar" d="M69.62745098039217,205h3.901960784313715v95h-3.901960784313715Z" fill="#cecece"/><path aria-label="Date: April 06; Sites: 87" role="graphics-symbol" aria-roledescription="bar" d="M74.52941176470588,191.25h3.9019607843137294v108.75h-3.9019607843137294Z" fill="#cecece"/><path aria-label="Date: April 07; Sites: 86" role="graphics-symbol" aria-roledescription="bar" d="M79.43137254901961,192.49999999999997h3.901960784313715v107.50000000000003h-3.901960784313715Z" fill="#cecece"/><path aria-label="Date: April 08; Sites: 87" role="graphics-symbol" aria-roledescription="bar" d="M84.33333333333333,191.25h3.9019607843137294v108.75h-3.9019607843137294Z" fill="#cecece"/><path aria-label="Date: April 09; Sites: 96" role="graphics-symbol" aria-roledescription="bar" d="M89.23529411764706,180h3.9019607843137294v120h-3.9019607843137294Z" fill="#cecece"/><path aria-label="Date: April 10; Sites: 95" role="graphics-symbol" aria-roledescription="bar" d="M94.13725490196079,181.25000000000003h3.901960784313715v118.74999999999997h-3.901960784313715Z" fill="#cecece"/><path aria-label="Date: April 11; Sites: 96" role="graphics-symbol" aria-roledescription="bar" d="M99.0392156862745,180h3.9019607843137294v120h-3.9019607843137294Z" fill="#cecece"/><path aria-label="Date: April 12; Sites: 97" role="graphics-symbol" aria-roledescription="bar" d="M103.94117647058823,178.75h3.9019607843137294v121.25h-3.9019607843137294Z" fill="#cecece"/><path aria-label="Date: April 13; Sites: 96" role="graphics-symbol" aria-roledescription="bar" d="M108.84313725490196,180h3.9019607843137294v120h-3.9019607843137294Z" fill="#cecece"/><path aria-label="Date: April 14; Sites: 97" role="graphics-symbol" aria-roledescription="bar" d="M113.74509803921569,178.75h3.901960784313715v121.25h-3.901960784313715Z" fill="#cecece"/><path aria-label="Date: April 15; Sites: 100" role="graphics-symbol" aria-roledescription="bar" d="M118.6470588235294,174.99999999999997h3.9019607843137294v125.00000000000003h-3.9019607843137294Z" fill="#cecece"/><path aria-label="Date: April 16; Sites: 100" role="graphics-symbol" aria-roledescription="bar" d="M123.54901960784314,174.99999999999997h3.901960784313715v125.00000000000003h-3.901960784313715Z" fill="#cecece"/><path aria-label="Date: April 17; Sites: 88" role="graphics-symbol" aria-roledescription="bar" d="M128.45098039215685,190h3.9019607843137294v110h-3.9019607843137294Z" fill="#cecece"/><path aria-label="Date: April 18; Sites: 98" role="graphics-symbol" aria-roledescription="bar" d="M133.35294117647058,177.5h3.901960784313758v122.5h-3.901960784313758Z" fill="#cecece"/><path aria-label="Date: April 19; Sites: 89" role="graphics-symbol" aria-roledescription="bar" d="M138.25490196078434,188.75h3.901960784313701v111.25h-3.901960784313701Z" fill="#cecece"/><path aria-label="Date: April 20; Sites: 100" role="graphics-symbol" aria-roledescription="bar" d="M143.15686274509804,174.99999999999997h3.9019607843137294v125.00000000000003h-3.9019607843137294Z" fill="#cecece"/><path aria-label="Date: April 21; Sites: 99" role="graphics-symbol" aria-roledescription="bar" d="M148.05882352941177,176.25h3.901960784313701v123.75h-3.901960784313701Z" fill="#cecece"/><path aria-label="Date: April 22; Sites: 100" role="graphics-symbol" aria-roledescription="bar" d="M152.96078431372547,174.99999999999997h3.901960784313758v125.00000000000003h-3.901960784313758Z" fill="#cecece"/><path aria-label="Date: April 23; Sites: 100" role="graphics-symbol" aria-roledescription="bar" d="M157.86274509803923,174.99999999999997h3.9019607843137294v125.00000000000003h-3.9019607843137294Z" fill="#cecece"/><path aria-label="Date: April 24; Sites: 99" role="graphics-symbol" aria-roledescription="bar" d="M162.76470588235296,176.25h3.901960784313701v123.75h-3.901960784313701Z" fill="#cecece"/><path aria-label="Date: April 25; Sites: 97" role="graphics-symbol" aria-roledescription="bar" d="M167.66666666666666,178.75h3.9019607843137294v121.25h-3.9019607843137294Z" fill="#cecece"/><path aria-label="Date: April 26; Sites: 96" role="graphics-symbol" aria-roledescription="bar" d="M172.5686274509804,180h3.9019607843137294v120h-3.9019607843137294Z" fill="#cecece"/><path aria-label="Date: April 27; Sites: 99" role="graphics-symbol" aria-roledescription="bar" d="M177.47058823529412,176.25h3.9019607843137294v123.75h-3.9019607843137294Z" fill="#cecece"/><path aria-label="Date: April 28; Sites: 88" role="graphics-symbol" aria-roledescription="bar" d="M182.37254901960785,190h3.9019607843137294v110h-3.9019607843137294Z" fill="#cecece"/><path aria-label="Date: April 29; Sites: 100" role="graphics-symbol" aria-roledescription="bar" d="M187.27450980392157,174.99999999999997h3.901960784313701v125.00000000000003h-3.901960784313701Z" fill="#cecece"/><path aria-label="Date: April 30; Sites: 96" role="graphics-symbol" aria-roledescription="bar" d="M192.17647058823528,180h3.9019607843137294v120h-3.9019607843137294Z" fill="#cecece"/><path aria-label="Date: May 01; Sites: 97" role="graphics-symbol" aria-roledescription="bar" d="M197.078431372549,178.75h3.901960784313758v121.25h-3.901960784313758Z" fill="#cecece"/><path aria-label="Date: May 02; Sites: 100" role="graphics-symbol" aria-roledescription="bar" d="M201.98039215686276,174.99999999999997h3.901960784313701v125.00000000000003h-3.901960784313701Z" fill="#cecece"/><path aria-label="Date: May 03; Sites: 100" role="graphics-symbol" aria-roledescription="bar" d="M206.88235294117646,174.99999999999997h3.9019607843137294v125.00000000000003h-3.9019607843137294Z" fill="#cecece"/><path aria-label="Date: May 04; Sites: 98" role="graphics-symbol" aria-roledescription="bar" d="M211.7843137254902,177.5h3.9019607843137294v122.5h-3.9019607843137294Z" fill="#cecece"/><path aria-label="Date: May 05; Sites: 98" role="graphics-symbol" aria-roledescription="bar" d="M216.68627450980392,177.5h3.9019607843137294v122.5h-3.9019607843137294Z" fill="#cecece"/><path aria-label="Date: May 06; Sites: 100" role="graphics-symbol" aria-roledescription="bar" d="M221.58823529411765,174.99999999999997h3.9019607843137294v125.00000000000003h-3.9019607843137294Z" fill="#cecece"/><path aria-label="Date: May 07; Sites: 95" role="graphics-symbol" aria-roledescription="bar" d="M226.49019607843138,181.25000000000003h3.901960784313701v118.74999999999997h-3.901960784313701Z" fill="#cecece"/><path aria-label="Date: May 08; Sites: 97" role="graphics-symbol" aria-roledescription="bar" d="M231.39215686274508,178.75h3.9019607843137294v121.25h-3.9019607843137294Z" fill="#cecece"/><path aria-label="Date: May 09; Sites: 99" role="graphics-symbol" aria-roledescription="bar" d="M236.2941176470588,176.25h3.901960784313758v123.75h-3.901960784313758Z" fill="#cecece"/><path aria-label="Date: May 10; Sites: 95" role="graphics-symbol" aria-roledescription="bar" d="M241.19607843137257,181.25000000000003h3.901960784313701v118.74999999999997h-3.901960784313701Z" fill="#cecece"/><path aria-label="Date: May 11; Sites: 76" role="graphics-symbol" aria-roledescription="bar" d="M246.09803921568627,205h3.9019607843137294v95h-3.9019607843137294Z" fill="#cecece"/><path aria-label="Date: May 12; Sites: 99" role="graphics-symbol" aria-roledescription="bar" d="M251,176.25h3.901960784313701v123.75h-3.901960784313701Z" fill="#cecece"/><path aria-label="Date: May 13; Sites: 97" role="graphics-symbol" aria-roledescription="bar" d="M255.9019607843137,178.75h3.901960784313758v121.25h-3.901960784313758Z" fill="#cecece"/><path aria-label="Date: May 14; Sites: 95" role="graphics-symbol" aria-roledescription="bar" d="M260.80392156862746,181.25000000000003h3.901960784313701v118.74999999999997h-3.901960784313701Z" fill="#cecece"/><path aria-label="Date: May 15; Sites: 97" role="graphics-symbol" aria-roledescription="bar" d="M265.70588235294116,178.75h3.901960784313701v121.25h-3.901960784313701Z" fill="#cecece"/><path aria-label="Date: May 16; Sites: 84" role="graphics-symbol" aria-roledescription="bar" d="M270.60784313725486,195h3.9019607843138147v105h-3.9019607843138147Z" fill="#cecece"/><path aria-label="Date: May 17; Sites: 83" role="graphics-symbol" aria-roledescription="bar" d="M275.5098039215687,196.25h3.901960784313701v103.75h-3.901960784313701Z" fill="#cecece"/><path aria-label="Date: May 18; Sites: 78" role="graphics-symbol" aria-roledescription="bar" d="M280.4117647058824,202.5h3.901960784313701v97.5h-3.901960784313701Z" fill="#cecece"/><path aria-label="Date: May 19; Sites: 78" role="graphics-symbol" aria-roledescription="bar" d="M285.3137254901961,202.5h3.901960784313758v97.5h-3.901960784313758Z" fill="#cecece"/><path aria-label="Date: May 20; Sites: 86" role="graphics-symbol" aria-roledescription="bar" d="M290.21568627450984,192.49999999999997h3.901960784313701v107.50000000000003h-3.901960784313701Z" fill="#cecece"/><path aria-label="Date: May 21; Sites: 100" role="graphics-symbol" aria-roledescription="bar" d="M295.11764705882354,174.99999999999997h3.901960784313701v125.00000000000003h-3.901960784313701Z" fill="#cecece"/><path aria-label="Date: May 22; Sites: 98" role="graphics-symbol" aria-roledescription="bar" d="M300.01960784313724,177.5h3.901960784313701v122.5h-3.901960784313701Z" fill="#cecece"/><path aria-label="Date: May 23; Sites: 90" role="graphics-symbol" aria-roledescription="bar" d="M304.92156862745094,187.5h3.901960784313758v112.5h-3.901960784313758Z" fill="#cecece"/><path aria-label="Date: May 24; Sites: 94" role="graphics-symbol" aria-roledescription="bar" d="M309.8235294117647,182.50000000000003h3.901960784313758v117.49999999999997h-3.901960784313758Z" fill="#cecece"/><path aria-label="Date: May 25; Sites: 90" role="graphics-symbol" aria-roledescription="bar" d="M314.72549019607845,187.5h3.901960784313701v112.5h-3.901960784313701Z" fill="#cecece"/><path aria-label="Date: May 26; Sites: 89" role="graphics-symbol" aria-roledescription="bar" d="M319.62745098039215,188.75h3.901960784313758v111.25h-3.901960784313758Z" fill="#cecece"/><path aria-label="Date: May 27; Sites: 91" role="graphics-symbol" aria-roledescription="bar" d="M324.5294117647059,186.25h3.901960784313701v113.75h-3.901960784313701Z" fill="#cecece"/><path aria-label="Date: May 28; Sites: 75" role="graphics-symbol" aria-roledescription="bar" d="M329.4313725490196,206.25h3.901960784313701v93.75h-3.901960784313701Z" fill="#cecece"/><path aria-label="Date: May 29; Sites: 92" role="graphics-symbol" aria-roledescription="bar" d="M334.3333333333333,185h3.901960784313758v115h-3.901960784313758Z" fill="#cecece"/><path aria-label="Date: May 30; Sites: 100" role="graphics-symbol" aria-roledescription="bar" d="M339.2352941176471,174.99999999999997h3.901960784313701v125.00000000000003h-3.901960784313701Z" fill="#cecece"/><path aria-label="Date: May 31; Sites: 100" role="graphics-symbol" aria-roledescription="bar" d="M344.1372549019608,174.99999999999997h3.901960784313701v125.00000000000003h-3.901960784313701Z" fill="#cecece"/><path aria-label="Date: June 01; Sites: 86" role="graphics-symbol" aria-roledescription="bar" d="M349.0392156862745,192.49999999999997h3.901960784313758v107.50000000000003h-3.901960784313758Z" fill="#cecece"/><path aria-label="Date: June 02; Sites: 100" role="graphics-symbol" aria-roledescription="bar" d="M353.94117647058823,174.99999999999997h3.901960784313758v125.00000000000003h-3.901960784313758Z" fill="#cecece"/><path aria-label="Date: June 03; Sites: 90" role="graphics-symbol" aria-roledescription="bar" d="M358.843137254902,187.5h3.901960784313701v112.5h-3.901960784313701Z" fill="#cecece"/><path aria-label="Date: June 04; Sites: 100" role="graphics-symbol" aria-roledescription="bar" d="M363.7450980392157,174.99999999999997h3.901960784313758v125.00000000000003h-3.901960784313758Z" fill="#cecece"/><path aria-label="Date: June 05; Sites: 81" role="graphics-symbol" aria-roledescription="bar" d="M368.64705882352945,198.75h3.901960784313701v101.25h-3.901960784313701Z" fill="#cecece"/><path aria-label="Date: June 06; Sites: 77" role="graphics-symbol" aria-roledescription="bar" d="M373.54901960784315,203.75h3.901960784313701v96.25h-3.901960784313701Z" fill="#cecece"/><path aria-label="Date: June 07; Sites: 98" role="graphics-symbol" aria-roledescription="bar" d="M378.45098039215685,177.5h3.901960784313701v122.5h-3.901960784313701Z" fill="#cecece"/><path aria-label="Date: June 08; Sites: 72" role="graphics-symbol" aria-roledescription="bar" d="M383.35294117647055,210h3.901960784313758v90h-3.901960784313758Z" fill="#cecece"/><path aria-label="Date: June 09; Sites: 100" role="graphics-symbol" aria-roledescription="bar" d="M388.2549019607843,174.99999999999997h3.901960784313701v125.00000000000003h-3.901960784313701Z" fill="#cecece"/><path aria-label="Date: June 10; Sites: 76" role="graphics-symbol" aria-roledescription="bar" d="M393.156862745098,205h3.901960784313758v95h-3.901960784313758Z" fill="#cecece"/><path aria-label="Date: June 11; Sites: 101" role="graphics-symbol" aria-roledescription="bar" d="M398.05882352941177,173.74999999999997h3.901960784313758v126.25000000000003h-3.901960784313758Z" fill="#cecece"/><path aria-label="Date: June 12; Sites: 98" role="graphics-symbol" aria-roledescription="bar" d="M402.9607843137255,177.5h3.901960784313701v122.5h-3.901960784313701Z" fill="#cecece"/><path aria-label="Date: June 13; Sites: 95" role="graphics-symbol" aria-roledescription="bar" d="M407.8627450980392,181.25000000000003h3.901960784313701v118.74999999999997h-3.901960784313701Z" fill="#cecece"/><path aria-label="Date: June 14; Sites: 82" role="graphics-symbol" aria-roledescription="bar" d="M412.7647058823529,197.5h3.901960784313758v102.5h-3.901960784313758Z" fill="#cecece"/><path aria-label="Date: June 15; Sites: 71" role="graphics-symbol" aria-roledescription="bar" d="M417.6666666666667,211.24999999999997h3.901960784313701v88.75000000000003h-3.901960784313701Z" fill="#cecece"/><path aria-label="Date: June 16; Sites: 81" role="graphics-symbol" aria-roledescription="bar" d="M422.5686274509804,198.75h3.901960784313701v101.25h-3.901960784313701Z" fill="#cecece"/><path aria-label="Date: June 17; Sites: 105" role="graphics-symbol" aria-roledescription="bar" d="M427.4705882352941,168.75h3.901960784313758v131.25h-3.901960784313758Z" fill="#cecece"/><path aria-label="Date: June 18; Sites: 113" role="graphics-symbol" aria-roledescription="bar" d="M432.37254901960785,158.75h3.901960784313701v141.25h-3.901960784313701Z" fill="#cecece"/><path aria-label="Date: June 19; Sites: 148" role="graphics-symbol" aria-roledescription="bar" d="M437.27450980392155,114.99999999999999h3.901960784313758v185h-3.901960784313758Z" fill="#cecece"/><path aria-label="Date: June 20; Sites: 149" role="graphics-symbol" aria-roledescription="bar" d="M442.1764705882353,113.75h3.901960784313758v186.25h-3.901960784313758Z" fill="#cecece"/><path aria-label="Date: June 21; Sites: 149" role="graphics-symbol" aria-roledescription="bar" d="M447.07843137254906,113.75h3.901960784313701v186.25h-3.901960784313701Z" fill="#cecece"/><path aria-label="Date: June 22; Sites: 149" role="graphics-symbol" aria-roledescription="bar" d="M451.98039215686276,113.75h3.901960784313701v186.25h-3.901960784313701Z" fill="#cecece"/><path aria-label="Date: June 23; Sites: 149" role="graphics-symbol" aria-roledescription="bar" d="M456.88235294117646,113.75h3.901960784313701v186.25h-3.901960784313701Z" fill="#cecece"/><path aria-label="Date: June 24; Sites: 198" role="graphics-symbol" aria-roledescription="bar" d="M461.78431372549016,52.500000000000014h3.901960784313758v247.5h-3.901960784313758Z" fill="#cecece"/><path aria-label="Date: June 25; Sites: 198" role="graphics-symbol" aria-roledescription="bar" d="M466.6862745098039,52.500000000000014h3.901960784313701v247.5h-3.901960784313701Z" fill="#cecece"/><path aria-label="Date: June 26; Sites: 198" role="graphics-symbol" aria-roledescription="bar" d="M471.5882352941176,52.500000000000014h3.901960784313701v247.5h-3.901960784313701Z" fill="#cecece"/><path aria-label="Date: June 27; Sites: 200" role="graphics-symbol" aria-roledescription="bar" d="M476.4901960784313,49.999999999999986h3.9019607843138147v250h-3.9019607843138147Z" fill="#cecece"/><path aria-label="Date: June 28; Sites: 200" role="graphics-symbol" aria-roledescription="bar" d="M481.39215686274514,49.999999999999986h3.901960784313701v250h-3.901960784313701Z" fill="#cecece"/><path aria-label="Date: June 29; Sites: 201" role="graphics-symbol" aria-roledescription="bar" d="M486.29411764705884,48.74999999999999h3.901960784313701v251.25h-3.901960784313701Z" fill="#cecece"/><path aria-label="Date: June 30; Sites: 221" role="graphics-symbol" aria-roledescription="bar" d="M491.19607843137254,23.750000000000014h3.901960784313758v276.25h-3.901960784313758Z" fill="#cecece"/><path aria-label="Date: July 01; Sites: 221" role="graphics-symbol" aria-roledescription="bar" d="M496.0980392156863,23.750000000000014h3.901960784313701v276.25h-3.901960784313701Z" fill="#cecece"/></g><g class="mark-line role-mark layer_1_marks" role="graphics-object" aria-roledescription="line mark container"><path aria-label="date: Mar 22, 2022; rolling_mean: 0" role="graphics-symbol" aria-roledescription="line mark" d="M29.41176470588235,231.07142857142856L34.313725490196084,218.39285714285714L39.21568627450981,217.67857142857142L44.11764705882353,215.35714285714286L49.01960784313725,213.9285714285714L53.92156862745098,215.17857142857142L58.8235294117647,223.57142857142858L63.725490196078425,223.0357142857143L68.62745098039217,222.32142857142858L73.52941176470588,215.53571428571428L78.43137254901961,211.07142857142856L83.33333333333333,209.64285714285714L88.23529411764706,203.39285714285717L93.13725490196079,191.25L98.0392156862745,188.75L102.94117647058823,185L107.84313725490196,183.39285714285717L112.74509803921569,181.42857142857142L117.6470588235294,179.1071428571429L122.54901960784314,178.39285714285714L127.45098039215685,179.64285714285714L132.35294117647058,179.28571428571428L137.25490196078434,180.7142857142857L142.15686274509804,180L147.05882352941177,179.64285714285714L151.96078431372547,179.64285714285714L156.86274509803923,179.64285714285714L161.76470588235296,177.67857142857142L166.66666666666666,177.85714285714286L171.5686274509804,176.60714285714286L176.47058823529412,176.78571428571428L181.37254901960785,178.75L186.27450980392157,178.75L191.17647058823528,179.46428571428572L196.078431372549,179.8214285714286L200.98039215686276,179.28571428571428L205.88235294117646,178.57142857142858L210.7843137254902,178.75L215.68627450980392,176.96428571428572L220.58823529411765,176.96428571428572L225.49019607843138,177.1428571428571L230.39215686274508,177.1428571428571L235.2941176470588,177.32142857142858L240.19607843137257,178.21428571428572L245.09803921568627,182.14285714285714L250,181.96428571428572L254.9019607843137,182.50000000000003L259.80392156862746,182.50000000000003L264.70588235294116,182.50000000000003L269.60784313725486,185.17857142857144L274.5098039215687,187.32142857142858L279.4117647058824,186.96428571428572L284.3137254901961,190.7142857142857L289.21568627450984,192.67857142857142L294.11764705882354,191.78571428571428L299.01960784313724,191.60714285714283L303.92156862745094,190.53571428571428L308.8235294117647,188.57142857142856L313.72549019607845,186.42857142857144L318.62745098039215,184.46428571428572L323.5294117647059,183.57142857142858L328.4313725490196,188.03571428571428L333.3333333333333,189.10714285714286L338.2352941176471,187.32142857142858L343.1372549019608,186.25L348.0392156862745,186.96428571428572L352.94117647058823,185L357.843137254902,185.17857142857144L362.7450980392157,180.7142857142857L367.64705882352945,182.67857142857144L372.54901960784315,186.78571428571428L377.45098039215685,187.14285714285714L382.35294117647055,189.64285714285714L387.2549019607843,189.64285714285714L392.156862745098,192.14285714285714L397.05882352941177,191.9642857142857L401.9607843137255,188.92857142857142L406.8627450980392,185.71428571428572L411.7647058823529,188.57142857142856L416.6666666666667,188.75L421.5686274509804,192.14285714285714L426.4705882352941,186.96428571428572L431.37254901960785,184.82142857142858L436.27450980392155,175.8928571428571L441.1764705882353,166.25L446.07843137254906,154.28571428571428L450.98039215686276,140.35714285714286L455.88235294117646,128.21428571428572L460.78431372549016,111.60714285714286L465.6862745098039,96.42857142857142L470.5882352941176,87.49999999999999L475.4901960784313,78.39285714285717L480.39215686274514,69.28571428571428L485.29411764705884,59.999999999999986L490.19607843137254,47.14285714285714L495.0980392156863,43.03571428571426" stroke="#727272" stroke-width="3"/></g><g class="mark-symbol role-mark layer_2_marks" role="graphics-object" aria-roledescription="symbol mark container"><path aria-label="Max of date: Jul 01, 2022; rolling_mean for max date: 205.571428571" role="graphics-symbol" aria-roledescription="circle" transform="translate(495.0980392156863,43.03571428571426)" d="M4.330127018922194,0A4.330127018922194,4.330127018922194,0,1,1,-4.330127018922194,0A4.330127018922194,4.330127018922194,0,1,1,4.330127018922194,0" fill="#727272" stroke-width="2"/></g><g class="mark-group role-title"><g transform="translate(250,-22)"><path class="background" aria-hidden="true" d="M0,0h0v0h0Z" pointer-events="none"/><g><g class="mark-text role-title-text" role="graphics-symbol" aria-roledescription="title" aria-label="Title text 'Sites archived by @newshomepages'" pointer-events="none"><text text-anchor="middle" transform="translate(0,10)" font-family="sans-serif" font-size="13px" font-weight="bold" fill="#000" opacity="1">Sites archived by @newshomepages</text></g></g><path class="foreground" aria-hidden="true" d="" pointer-events="none" display="none"/></g></g></g><path class="foreground" aria-hidden="true" d="" display="none"/></g></g></g></svg>